<svg xmlns="http://www.w3.org/2000/svg" width="772" height="408" viewBox="0 0 772 408" version="1.1"><path d="M 312.124 65.515 C 289.295 71.921, 267.937 94.205, 262.491 117.301 C 260.373 126.286, 260.581 142.040, 262.940 151.265 C 264.977 159.229, 268.806 169.014, 269.873 168.980 C 270.218 168.969, 271.850 166.670, 273.500 163.870 C 277.401 157.252, 285.122 150.244, 292.564 146.567 C 295.829 144.954, 298.621 143.557, 298.770 143.464 C 298.918 143.371, 297.475 141.586, 295.563 139.499 C 281.049 123.654, 292.754 97.943, 314.446 98.022 C 318.132 98.035, 322.073 98.759, 324.522 99.871 C 340.121 106.957, 344.501 127.626, 332.987 139.816 C 331.783 141.090, 330.957 142.251, 331.149 142.396 C 331.342 142.542, 334.200 143.244, 337.500 143.958 C 340.800 144.671, 344.016 145.453, 344.646 145.695 C 345.276 145.936, 346.901 143.712, 348.257 140.750 C 356.378 123.010, 377.976 119.639, 390.414 134.170 C 392.410 136.502, 394.564 140.149, 395.200 142.275 C 396.166 145.498, 396.702 146.042, 398.429 145.551 C 399.568 145.228, 402.750 144.468, 405.500 143.863 C 408.250 143.258, 410.658 142.621, 410.851 142.447 C 411.044 142.274, 410.076 140.639, 408.699 138.816 C 404.922 133.811, 402.998 128.325, 403.022 122.628 C 403.116 100.620, 431.173 89.530, 446.017 105.634 C 451.398 111.472, 453.005 115.531, 452.978 123.218 C 452.952 130.542, 450.738 136.104, 446.120 140.443 L 442.988 143.385 449.745 146.515 C 457.658 150.180, 465.433 157.328, 469.773 164.926 L 472.804 170.232 474.962 165.366 C 480.909 151.960, 483.362 134.052, 480.986 121.386 C 476.257 96.171, 457.149 74.489, 432.626 66.512 C 425.049 64.048, 423.014 63.782, 415.271 64.248 C 395.661 65.430, 381.295 75.583, 376.992 91.304 C 375.159 97.998, 373.582 99.614, 369.808 98.667 C 367.724 98.144, 367.012 96.947, 365.533 91.482 C 362.442 80.063, 354.410 71.674, 341.950 66.850 C 334.751 64.063, 319.699 63.389, 312.124 65.515" stroke="none" fill="#ffa3d2" fill-rule="evenodd"/><path d="M 422 107.118 C 417.894 108.747, 413.033 114.164, 411.899 118.374 C 409.030 129.031, 417.276 140, 428.158 140 C 436.988 140, 444.967 131.931, 444.967 123 C 444.967 111.467, 432.598 102.914, 422 107.118 M 410.360 151.476 C 397.999 153.720, 396.277 154.586, 394.015 159.700 C 392.907 162.205, 392 164.351, 392 164.469 C 392 164.587, 393.868 165.243, 396.150 165.927 C 400.811 167.323, 409.641 175.478, 412.538 181.062 C 415.103 186.004, 415.664 197.602, 413.628 203.577 C 412.736 206.196, 412.157 208.490, 412.341 208.675 C 413.362 209.695, 428.674 194.963, 438.506 183.500 C 444.414 176.612, 453.141 161.970, 452.789 159.535 C 452.625 158.396, 450.756 156.570, 448.464 155.308 C 439.141 150.176, 425.232 148.777, 410.360 151.476 M 457.053 171.607 C 452.880 179.471, 442.294 192.685, 432.184 202.648 C 417.704 216.917, 397.827 231.320, 374 244.811 C 355.886 255.067, 356.787 254.012, 363.132 257.529 C 366.081 259.163, 369.233 260.805, 370.138 261.178 C 371.205 261.617, 375.421 259.756, 382.141 255.880 C 390.936 250.806, 406.081 241.324, 409.500 238.750 C 410.050 238.336, 413.356 235.942, 416.847 233.429 C 424.261 228.094, 438.568 215.730, 444.980 209.119 C 453.803 200.021, 467.001 182.920, 466.999 180.587 C 466.998 178.827, 461.158 167, 460.291 167 C 459.854 167, 458.397 169.073, 457.053 171.607" stroke="none" fill="#ef3075" fill-rule="evenodd"/><path d="M 307.209 108.611 C 290.753 117.005, 299.243 141.656, 317.565 138.683 C 331.068 136.492, 335.126 117.923, 323.857 109.898 C 319.686 106.928, 311.715 106.312, 307.209 108.611" stroke="none" fill="#1ab9c3" fill-rule="evenodd"/><path d="M 308.580 151.097 C 302.176 152.042, 290 157.212, 290 158.987 C 290 160.771, 293.886 168.020, 298.852 175.500 C 303.583 182.625, 327.484 207.850, 328.521 206.812 C 328.834 206.499, 328.560 204.139, 327.913 201.567 C 326.160 194.606, 327.241 184.971, 330.375 179.623 C 332.739 175.590, 342.448 166, 344.168 166 C 344.554 166, 346.010 165.567, 347.403 165.037 L 349.935 164.074 348.042 159.846 C 346.454 156.297, 345.453 155.409, 341.825 154.323 C 331.439 151.216, 317.165 149.831, 308.580 151.097" stroke="none" fill="#128896" fill-rule="evenodd"/><path d="M 297.607 117.582 C 296.766 119.773, 296.873 127.252, 297.765 128.655 C 298.169 129.289, 298.500 126.702, 298.500 122.905 C 298.500 119.107, 298.436 116, 298.357 116 C 298.278 116, 297.941 116.712, 297.607 117.582 M 331.272 123 C 331.272 125.475, 331.467 126.487, 331.706 125.250 C 331.944 124.013, 331.944 121.987, 331.706 120.750 C 331.467 119.513, 331.272 120.525, 331.272 123 M 328.987 131.032 C 328.281 132.736, 326.091 135.225, 324.120 136.565 C 322.149 137.904, 320.908 139, 321.363 139 C 324.247 139, 332.243 129.909, 330.708 128.375 C 330.467 128.133, 329.692 129.329, 328.987 131.032 M 299.884 132.672 C 301.151 135.166, 305.734 139.015, 307.385 138.970 C 307.998 138.953, 307.600 138.460, 306.500 137.875 C 305.400 137.290, 303.213 135.391, 301.640 133.656 C 299.740 131.558, 299.151 131.229, 299.884 132.672 M 308.500 149.956 C 301.840 151.050, 292.897 154.516, 290.163 157.062 L 287.954 159.121 291.485 165.810 C 297.842 177.855, 308.675 190.965, 321.891 202.608 C 326.506 206.673, 330.635 210, 331.066 210 C 331.496 210, 330.983 207.536, 329.924 204.525 C 327.236 196.877, 327.425 188.778, 330.441 182.299 C 333.445 175.848, 341.120 168.344, 346.303 166.791 C 350.995 165.385, 351.553 164.290, 349.542 160.434 C 348.701 158.820, 348.010 156.992, 348.006 156.371 C 347.986 152.590, 320.067 148.056, 308.500 149.956 M 308.580 151.097 C 302.176 152.042, 290 157.212, 290 158.987 C 290 160.771, 293.886 168.020, 298.852 175.500 C 303.583 182.625, 327.484 207.850, 328.521 206.812 C 328.834 206.499, 328.560 204.139, 327.913 201.567 C 326.160 194.606, 327.241 184.971, 330.375 179.623 C 332.739 175.590, 342.448 166, 344.168 166 C 344.554 166, 346.010 165.567, 347.403 165.037 L 349.935 164.074 348.042 159.846 C 346.454 156.297, 345.453 155.409, 341.825 154.323 C 331.439 151.216, 317.165 149.831, 308.580 151.097 M 277.983 173.187 L 274.671 180.374 276.991 184.437 C 283.362 195.594, 299.783 213.578, 314.477 225.491 C 325.875 234.731, 344.640 247.876, 347.399 248.551 C 348.691 248.867, 352.172 247.641, 356.436 245.367 C 362.897 241.922, 363.239 241.575, 361.436 240.289 C 360.371 239.531, 354.354 235.527, 348.064 231.393 C 319.151 212.388, 296.182 189.900, 285.915 170.546 C 284.589 168.046, 283.007 166, 282.400 166 C 281.793 166, 279.805 169.234, 277.983 173.187" stroke="none" fill="#146480" fill-rule="evenodd"/><path d="M 363.149 135.696 C 358.187 138.142, 354.769 143.893, 354.769 149.800 C 354.769 167.380, 376.733 173.549, 385.580 158.454 C 392.047 147.418, 384.351 133.966, 371.602 134.023 C 368.796 134.035, 364.992 134.788, 363.149 135.696 M 349 173.538 C 339.975 177.571, 334.129 187.641, 335.485 196.819 C 336.488 203.613, 341.476 212.256, 348.345 219.104 C 354.642 225.382, 368.128 235, 370.633 235 C 374.687 235, 389.547 224.522, 396.569 216.712 C 407.246 204.837, 410.035 192.178, 404.053 182.745 C 396.408 170.690, 381.325 168.561, 376.102 178.801 C 372.930 185.019, 369.665 185.162, 366.743 179.212 C 363.824 173.266, 355.538 170.616, 349 173.538" stroke="none" fill="#f59c00" fill-rule="evenodd"/><path d="M 311.500 56.472 C 308.200 57.194, 302.007 59.446, 297.737 61.476 C 277.694 71.008, 262.334 88.216, 254.626 109.771 C 251.662 118.058, 251.507 119.234, 251.552 133 C 251.594 145.834, 251.912 148.534, 254.323 156.500 C 264.751 190.953, 292.215 222.985, 335.587 251.278 C 349.620 260.432, 366.599 270.421, 369.915 271.473 C 374.075 272.793, 406.431 253.334, 429 235.938 C 441.693 226.155, 461.008 206.569, 468.893 195.486 C 475.614 186.038, 484.649 168.297, 487.473 159 C 493.838 138.048, 492.460 118.049, 483.362 99.350 C 470.804 73.538, 443.274 55, 417.500 55 C 400.367 55, 382.643 63.250, 374.486 75.021 C 371.408 79.461, 370.414 79.881, 369.535 77.111 C 368.431 73.631, 358.989 65.242, 352.107 61.625 C 340.076 55.303, 325.370 53.437, 311.500 56.472 M 312.656 64.518 C 304.791 66.507, 292.871 72.851, 285.246 79.107 C 268.370 92.950, 257.701 116.871, 259.387 137.084 C 259.740 141.326, 260.914 148.253, 261.994 152.477 C 263.968 160.194, 268.742 172.002, 269.887 171.998 C 270.224 171.996, 271.766 169.573, 273.313 166.612 C 277.034 159.490, 285.104 151.605, 292.410 147.954 C 295.660 146.329, 298.923 145, 299.660 145 C 301.702 145, 301.272 143.603, 298.405 140.924 C 294.645 137.412, 291.203 131.121, 290.444 126.376 C 289.012 117.416, 294.878 106.219, 303.347 101.751 C 309.145 98.692, 319.842 98.684, 325.624 101.736 C 333.600 105.945, 338.211 113.722, 338.217 122.974 C 338.221 129.387, 336.269 134.486, 331.904 139.457 C 329.712 141.953, 329.199 143.112, 330.152 143.411 C 335.232 145.008, 346.049 147.088, 346.814 146.615 C 347.324 146.300, 348 144.750, 348.316 143.171 C 349.228 138.608, 355.056 131.847, 360.483 129.055 C 372.943 122.643, 388.801 128.794, 393.661 141.923 C 394.592 144.440, 395.464 146.651, 395.597 146.836 C 395.822 147.149, 409.863 144.369, 412.834 143.423 C 413.741 143.134, 412.915 141.575, 410.260 138.558 C 404.329 131.820, 402.867 125.385, 405.181 116.197 C 406.802 109.757, 414.624 101.912, 421.273 100.058 C 436.168 95.905, 450.717 105.934, 451.814 121.112 C 452.367 128.746, 450.209 134.556, 444.820 139.945 L 440.762 144.003 444.631 145.560 C 456.544 150.354, 464.595 157.321, 469.571 167.140 C 470.925 169.813, 472.380 172, 472.803 172 C 474.030 172, 480.716 154.106, 482.043 147.268 C 482.772 143.517, 483.062 136.552, 482.774 129.768 C 481.955 110.515, 476.382 98.395, 461.477 83.457 C 453.854 75.817, 450.984 73.696, 442.977 69.783 C 437.765 67.236, 431.115 64.668, 428.201 64.076 C 413.019 60.993, 396.387 64.993, 386.504 74.103 C 380.912 79.257, 377.723 84.530, 375.491 92.308 C 373.956 97.658, 373.616 98.092, 371.181 97.808 C 369.230 97.581, 368.303 96.713, 367.647 94.500 C 362.897 78.495, 356.601 71.420, 342.238 65.949 C 334.806 63.118, 320.860 62.444, 312.656 64.518 M 310.646 106.131 C 297.043 109.240, 292.574 125.124, 302.308 135.768 C 303.449 137.016, 306.620 138.701, 309.355 139.513 C 325.335 144.258, 337.916 127.049, 328.675 113.085 C 324.873 107.340, 317.612 104.539, 310.646 106.131 M 422 107.118 C 417.894 108.747, 413.033 114.164, 411.899 118.374 C 409.030 129.031, 417.276 140, 428.158 140 C 436.988 140, 444.967 131.931, 444.967 123 C 444.967 111.467, 432.598 102.914, 422 107.118 M 364.500 134.881 C 347.451 142.710, 352.981 167, 371.812 167 C 377.527 167, 382.171 164.339, 385.814 158.976 C 387.798 156.055, 388.116 154.535, 387.803 149.457 C 387.350 142.083, 384.506 137.588, 378.599 134.905 C 373.428 132.557, 369.575 132.550, 364.500 134.881 M 308.500 149.956 C 301.840 151.050, 292.897 154.516, 290.163 157.062 L 287.954 159.121 291.485 165.810 C 297.842 177.855, 308.675 190.965, 321.891 202.608 C 326.506 206.673, 330.635 210, 331.066 210 C 331.496 210, 330.983 207.536, 329.924 204.525 C 327.236 196.877, 327.425 188.778, 330.441 182.299 C 333.445 175.848, 341.120 168.344, 346.303 166.791 C 350.995 165.385, 351.553 164.290, 349.542 160.434 C 348.701 158.820, 348.010 156.992, 348.006 156.371 C 347.986 152.590, 320.067 148.056, 308.500 149.956 M 410.360 151.476 C 397.999 153.720, 396.277 154.586, 394.015 159.700 C 392.907 162.205, 392 164.351, 392 164.469 C 392 164.587, 393.868 165.243, 396.150 165.927 C 400.811 167.323, 409.641 175.478, 412.538 181.062 C 415.103 186.004, 415.664 197.602, 413.628 203.577 C 412.736 206.196, 412.157 208.490, 412.341 208.675 C 413.362 209.695, 428.674 194.963, 438.506 183.500 C 444.414 176.612, 453.141 161.970, 452.789 159.535 C 452.625 158.396, 450.756 156.570, 448.464 155.308 C 439.141 150.176, 425.232 148.777, 410.360 151.476 M 277.983 173.187 L 274.671 180.374 276.991 184.437 C 283.362 195.594, 299.783 213.578, 314.477 225.491 C 325.875 234.731, 344.640 247.876, 347.399 248.551 C 348.691 248.867, 352.172 247.641, 356.436 245.367 C 362.897 241.922, 363.239 241.575, 361.436 240.289 C 360.371 239.531, 354.354 235.527, 348.064 231.393 C 319.151 212.388, 296.182 189.900, 285.915 170.546 C 284.589 168.046, 283.007 166, 282.400 166 C 281.793 166, 279.805 169.234, 277.983 173.187 M 457.053 171.607 C 452.880 179.471, 442.294 192.685, 432.184 202.648 C 417.704 216.917, 397.827 231.320, 374 244.811 C 355.886 255.067, 356.787 254.012, 363.132 257.529 C 366.081 259.163, 369.233 260.805, 370.138 261.178 C 371.205 261.617, 375.421 259.756, 382.141 255.880 C 390.936 250.806, 406.081 241.324, 409.500 238.750 C 410.050 238.336, 413.356 235.942, 416.847 233.429 C 424.261 228.094, 438.568 215.730, 444.980 209.119 C 453.803 200.021, 467.001 182.920, 466.999 180.587 C 466.998 178.827, 461.158 167, 460.291 167 C 459.854 167, 458.397 169.073, 457.053 171.607 M 347.252 174.104 C 342.691 176.362, 338.164 181.484, 336.043 186.785 C 334.081 191.689, 335.232 200.792, 338.622 207.179 C 342.407 214.309, 353.744 225.453, 363.225 231.361 L 370.950 236.176 376.571 232.960 C 391.684 224.312, 403.155 211.952, 406.491 200.718 C 408.385 194.340, 408.380 192.329, 406.457 186.879 C 403.308 177.952, 394.129 171.445, 385.814 172.244 C 380.376 172.766, 377.401 174.901, 375.349 179.750 C 373.309 184.570, 369.680 184.253, 367.011 179.021 C 363.436 172.014, 355.476 170.034, 347.252 174.104 M 108.250 283.636 C 107.301 284.039, 107 289.800, 107 307.583 L 107 331 122.393 331 C 139.291 331, 139.016 331.105, 138.985 324.668 C 138.958 319.179, 138.025 318.630, 129.083 318.850 C 121.091 319.047, 121 319.021, 121 316.568 C 121 314.182, 121.277 314.076, 128.250 313.794 L 135.500 313.500 136.108 308.500 C 137.035 300.878, 136.194 300, 127.965 300 C 122.731 300, 121 299.659, 121 298.629 C 121 297.196, 130.223 295.402, 131.987 296.492 C 132.493 296.805, 134.054 296.774, 135.454 296.422 C 137.817 295.829, 138 295.366, 138 289.959 C 138 285.247, 137.666 284.050, 136.250 283.692 C 133.727 283.054, 109.735 283.006, 108.250 283.636 M 157.537 284.286 C 157.332 284.954, 156.944 287.422, 156.675 289.771 C 155.957 296.027, 157.546 297.205, 165.590 296.381 C 169.116 296.019, 172 296.100, 172 296.559 C 172 297.019, 168.400 303.094, 164 310.060 C 157.330 320.620, 156 323.413, 156 326.863 L 156 331 173 331 L 190 331 190 325.040 L 190 319.081 182.059 318.790 L 174.118 318.500 182.033 306 C 188.978 295.032, 189.951 292.926, 189.974 288.817 C 189.994 285.178, 189.610 284.037, 188.250 283.697 C 187.287 283.457, 180.067 283.218, 172.205 283.166 C 161.800 283.098, 157.808 283.403, 157.537 284.286 M 210.669 284.474 C 209.640 285.503, 209.389 290.647, 209.542 307.648 C 209.649 319.667, 209.796 329.837, 209.869 330.250 C 209.941 330.663, 212.925 331, 216.500 331 L 223 331 223.175 327.750 C 223.271 325.962, 223.241 322.813, 223.108 320.750 C 222.902 317.578, 223.175 317, 224.878 317 C 226.353 317, 227.874 318.870, 230.569 324 L 234.248 331 241.691 331 C 250.337 331, 250.320 331.065, 244.390 320.948 C 242.526 317.766, 241 314.629, 241 313.976 C 241 313.323, 242.098 311.484, 243.439 309.890 C 249.527 302.655, 246.611 289.953, 237.819 285.407 C 233.987 283.425, 212.458 282.685, 210.669 284.474 M 282.214 283.847 C 280.826 284.727, 265.065 326.357, 265.025 329.250 C 265.004 330.741, 265.969 331, 271.551 331 C 278.093 331, 278.104 330.995, 279.564 327.500 L 281.027 324 288.064 324 L 295.102 324 296.564 327.500 C 298.021 330.985, 298.054 331, 304.454 331 C 307.990 331, 311.085 330.663, 311.332 330.250 C 312.066 329.029, 295.496 284.926, 293.932 283.937 C 292.149 282.809, 283.950 282.745, 282.214 283.847 M 320.250 283.643 C 319.454 283.977, 319 286.275, 319 289.976 C 319 296.549, 319.487 297, 326.582 297 L 331 297 331 314 L 331 331 337.500 331 L 344 331 344 314 L 344 297 348.800 297 C 351.440 297, 354.140 296.460, 354.800 295.800 C 356.383 294.217, 356.346 285.515, 354.750 284.267 C 353.467 283.262, 322.496 282.702, 320.250 283.643 M 375 283.978 C 373.738 284.775, 373.500 288.545, 373.500 307.713 L 373.500 330.500 380.250 330.796 L 387 331.091 387 322.629 C 387 317.975, 387.440 314.017, 387.978 313.833 C 388.516 313.650, 392.098 313.649, 395.939 313.831 L 402.922 314.161 403.211 322.331 L 403.500 330.500 410 330.500 L 416.500 330.500 416.500 307.609 C 416.500 281.358, 416.701 281.951, 408.345 283.565 L 403.500 284.500 403.208 292.250 L 402.916 300 394.958 300 L 387 300 387 292.107 C 387 285.832, 386.676 284.090, 385.418 283.607 C 383.016 282.685, 376.691 282.910, 375 283.978 M 450.466 284.677 C 449.660 285.483, 449 286.267, 449 286.419 C 449 286.572, 445.625 295.863, 441.500 307.066 C 437.375 318.270, 434 328.238, 434 329.218 C 434 330.744, 434.932 331, 440.487 331 C 446.955 331, 446.977 330.990, 448.436 327.500 L 449.898 324 457 324 L 464.102 324 465.564 327.500 L 467.027 331 474.013 331 C 477.856 331, 481 330.803, 481 330.563 C 481 329.533, 464.636 285.422, 463.976 284.674 C 462.589 283.101, 452.039 283.104, 450.466 284.677 M 487.181 283.819 C 486.138 284.518, 487.486 289.565, 493.614 307.891 L 501.367 331.078 508.821 330.789 L 516.275 330.500 523.596 309 C 527.622 297.175, 530.935 286.761, 530.958 285.857 C 531.009 283.869, 529 283, 524.352 283 C 518.419 283, 517.427 284.205, 513.462 296.239 C 511.421 302.433, 509.404 307.881, 508.979 308.346 C 508.554 308.812, 506.511 303.993, 504.438 297.638 C 502.365 291.282, 500.406 285.659, 500.084 285.143 C 499.264 283.823, 488.778 282.747, 487.181 283.819 M 549.113 284.287 C 548.361 285.039, 548 292.799, 548 308.225 L 548 331.051 563.750 330.775 L 579.500 330.500 579.500 325 L 579.500 319.500 570.750 319.211 C 562.199 318.929, 562 318.866, 562 316.461 C 562 314.088, 562.242 314, 568.800 314 C 572.756 314, 576.102 313.498, 576.800 312.800 C 577.460 312.140, 578 309.530, 578 307 C 578 304.470, 577.460 301.860, 576.800 301.200 C 576.099 300.499, 572.739 300, 568.727 300 C 562.719 300, 561.896 299.780, 562.190 298.250 C 562.477 296.763, 563.574 296.525, 569.483 296.668 C 578.626 296.888, 580 296.087, 580 290.536 C 580 283.411, 578.941 282.930, 563.516 283.061 C 555.239 283.132, 549.806 283.594, 549.113 284.287 M 600.250 283.602 C 599.302 284.030, 599 289.827, 599 307.629 L 599 331.091 605.750 330.796 L 612.500 330.500 612.797 323.686 C 613.179 314.940, 614.854 315.014, 619.924 324 L 623.591 330.500 630.796 330.794 C 639.505 331.149, 639.570 330.950, 633.968 321.064 L 629.937 313.950 632.718 310.303 C 635.127 307.145, 635.500 305.748, 635.500 299.894 C 635.500 293.748, 635.227 292.844, 632.500 289.976 C 627.525 284.745, 624.691 283.810, 612.583 283.406 C 606.487 283.203, 600.938 283.291, 600.250 283.602 M 223.187 300.250 C 223.431 302.788, 224.015 303.573, 225.852 303.833 C 231.182 304.587, 234.731 302.067, 233.362 298.500 C 232.957 297.446, 231.313 297, 227.830 297 L 222.873 297 223.187 300.250 M 613 300.557 C 613 304.112, 613.004 304.115, 617.148 303.807 C 621.565 303.480, 623.762 301.429, 622.691 298.636 C 622.237 297.454, 620.804 297, 617.531 297 C 613.005 297, 613 297.004, 613 300.557 M 287.157 306.707 C 285.491 309.819, 285.723 311, 288 311 C 290.094 311, 290.379 309.829, 289.087 306.522 C 288.332 304.589, 288.288 304.594, 287.157 306.707 M 456.157 306.707 C 454.491 309.819, 454.723 311, 457 311 C 459.094 311, 459.379 309.829, 458.087 306.522 C 457.332 304.589, 457.288 304.594, 456.157 306.707" stroke="none" fill="#260f23" fill-rule="evenodd"/><path d="M 321.750 63.723 C 323.538 63.945, 326.462 63.945, 328.250 63.723 C 330.038 63.502, 328.575 63.320, 325 63.320 C 321.425 63.320, 319.962 63.502, 321.750 63.723 M 413.750 63.723 C 415.538 63.945, 418.462 63.945, 420.250 63.723 C 422.038 63.502, 420.575 63.320, 417 63.320 C 413.425 63.320, 411.962 63.502, 413.750 63.723 M 431 65.634 C 436.053 67.812, 442 69.901, 442 69.499 C 442 68.830, 435.110 66.034, 432.058 65.465 C 430.651 65.203, 430.175 65.279, 431 65.634 M 348 69.591 C 350.475 71.002, 353.365 72.909, 354.422 73.829 C 355.515 74.779, 356.002 74.919, 355.552 74.152 C 354.609 72.545, 346.059 66.995, 344.554 67.012 C 343.974 67.019, 345.525 68.179, 348 69.591 M 393 69.581 C 387.351 72.790, 382.258 77.605, 380.392 81.500 L 378.955 84.500 380.689 82 C 383.802 77.512, 389.999 72.040, 394.797 69.542 C 397.384 68.195, 399.050 67.078, 398.500 67.059 C 397.950 67.040, 395.475 68.175, 393 69.581 M 296.092 71.750 C 283.376 79.245, 271.077 92.793, 265.460 105.494 C 257.739 122.952, 257.955 144.977, 266.032 163.910 C 267.564 167.501, 269.197 170.566, 269.660 170.720 C 270.124 170.875, 271.627 168.869, 273.001 166.263 C 277.706 157.341, 287.503 149.145, 298.368 145.043 L 301.236 143.960 296.816 139.230 C 282.328 123.728, 293.026 99.103, 314.282 99.022 C 317.462 99.010, 321.737 99.698, 323.782 100.551 C 330.165 103.213, 335.872 109.783, 338.066 116.994 C 338.579 118.680, 338.856 118.915, 338.914 117.710 C 339.043 115.018, 335.492 108.646, 331.811 104.965 C 327.117 100.271, 321.556 98.048, 314.446 98.022 C 292.754 97.943, 281.049 123.654, 295.563 139.499 C 297.475 141.586, 298.918 143.371, 298.770 143.464 C 298.621 143.557, 295.829 144.954, 292.564 146.567 C 285.122 150.244, 277.401 157.252, 273.500 163.870 C 271.850 166.670, 270.218 168.969, 269.873 168.980 C 268.806 169.014, 264.977 159.229, 262.940 151.265 C 260.581 142.040, 260.373 126.286, 262.491 117.301 C 266.823 98.931, 281.201 80.700, 298.957 71.062 C 302.006 69.407, 304.040 68.041, 303.477 68.027 C 302.915 68.012, 299.591 69.688, 296.092 71.750 M 446.158 72.164 C 447.070 72.899, 450.559 75.478, 453.911 77.896 C 467.492 87.690, 477.760 104.183, 480.986 121.386 C 483.362 134.052, 480.909 151.960, 474.962 165.366 L 472.804 170.232 469.773 164.926 C 465.433 157.328, 457.658 150.180, 449.745 146.515 L 442.988 143.385 446.120 140.443 C 449.733 137.048, 452.977 130.627, 452.911 127 C 452.881 125.361, 452.442 126.071, 451.635 129.061 C 450.354 133.811, 447.707 138.153, 444.108 141.405 C 441.695 143.585, 441.393 145, 443.340 145 C 445.573 145, 456.302 150.829, 459.500 153.780 C 463.403 157.381, 468.295 163.657, 470.389 167.750 C 471.303 169.537, 472.407 171, 472.842 171 C 473.800 171, 477.448 162.367, 480.116 153.785 C 482.911 144.798, 483.625 128.474, 481.631 119.134 C 477.768 101.031, 464.034 81.951, 448.500 73.106 C 446.300 71.853, 445.246 71.429, 446.158 72.164 M 357 75.491 C 357 75.762, 358.497 77.943, 360.326 80.339 C 362.155 82.736, 364.457 87.577, 365.441 91.098 C 367.152 97.215, 368.293 98.988, 370.500 98.954 C 371.050 98.946, 370.743 98.498, 369.817 97.958 C 368.892 97.418, 367.402 94.394, 366.507 91.238 C 364.804 85.235, 357 72.309, 357 75.491 M 417.459 100.367 C 402.742 107.220, 398.547 125.361, 408.598 138.683 C 411.557 142.605, 411.569 142.971, 408.750 143.116 C 406.968 143.208, 406.876 143.329, 408.308 143.701 C 409.303 143.958, 410.790 143.911, 411.614 143.595 C 412.818 143.133, 412.527 142.286, 410.123 139.260 C 405.513 133.458, 403.696 127.881, 404.190 121.053 C 405.835 98.315, 435.894 90.771, 448.563 109.916 C 449.930 111.982, 451.438 115.658, 451.915 118.086 C 452.549 121.319, 452.810 121.756, 452.890 119.718 C 453.167 112.701, 445.038 102.223, 437.263 99.574 C 430.581 97.297, 423.437 97.583, 417.459 100.367 M 338.574 125.156 C 337.788 131.078, 335.866 135.330, 332.209 139.240 C 330.799 140.746, 329.976 142.309, 330.380 142.713 C 330.979 143.313, 343.940 146.809, 346.114 146.958 C 346.452 146.981, 347.528 144.906, 348.506 142.346 C 352.513 131.853, 362.564 125.320, 373.214 126.286 C 383.069 127.179, 391.171 133.414, 394.328 142.534 C 395.062 144.654, 396.301 146.560, 397.081 146.770 C 398.017 147.022, 398.124 146.871, 397.395 146.326 C 396.787 145.872, 395.761 143.878, 395.115 141.895 C 393.530 137.030, 387.674 130.384, 382.765 127.880 C 369.691 121.210, 354.631 126.827, 348.257 140.750 C 346.901 143.712, 345.276 145.936, 344.646 145.695 C 344.016 145.453, 340.800 144.671, 337.500 143.958 C 334.200 143.244, 331.342 142.542, 331.149 142.396 C 330.957 142.251, 331.783 141.090, 332.987 139.816 C 336.408 136.193, 339.057 130.317, 339.695 124.932 C 340.016 122.219, 340.049 120, 339.768 120 C 339.487 120, 338.950 122.320, 338.574 125.156" stroke="none" fill="#eb7f88" fill-rule="evenodd"/></svg>