<svg width="1448" height="1032" viewBox="0 0 1448 1032" fill="none" xmlns="http://www.w3.org/2000/svg">
<g clip-path="url(#clip0_159_2)" filter="url(#filter0_d_159_2)">
<rect width="1440" height="1024" transform="translate(4)" fill="#120311"/>
<path d="M640.024 1173.69C673.812 1149.71 692.453 1113.66 689.343 1078.39C684.94 1028.63 641.619 993.298 585.514 972.332C564.974 964.648 543.404 958.403 524.177 948.901C477.766 925.955 479.927 890.052 458.721 855.049C401.626 760.747 242.317 829.512 144.183 807.412C80.3223 793.033 35.6075 746.314 33.3657 695.618C33.2042 691.983 33.184 688.15 30.821 684.982C29.1851 682.805 26.5798 681.167 23.934 679.709C-17.3675 656.854 -79.4511 665.312 -116.289 689.841C-157.025 716.98 -175.666 758.696 -186.694 799.26C-195.499 831.636 -200.548 865.307 -191.803 897.701C-168.093 985.631 -52.5293 1040.81 -4.34083 1122.62C6.06029 1140.29 13.2502 1159.1 25.5902 1176.02C56.9753 1219.03 117.625 1244.4 178.133 1260.78C252.739 1280.97 336.513 1290.62 410.108 1268.36C457.247 1254.1 496.993 1227.72 544.455 1214.11C577.516 1204.59 614.112 1192.09 640.024 1173.69Z" fill="url(#paint0_linear_159_2)"/>
<path d="M228.206 -44.169C216.876 -10.5876 229.862 38.5608 259.248 64.7457C288.613 90.9306 335.146 104.842 379.557 100.739C411.589 97.7693 441.116 86.2695 471.996 79.0529C502.876 71.8363 538.604 69.4248 565.425 83.3361C579.259 90.4987 590.428 101.818 606.726 104.41C621.368 106.75 636.677 101.027 646.634 92.3703C656.571 83.714 662.004 72.5202 666.164 61.3624C677.878 30.0305 681.21 -3.17304 675.919 -35.5307C672.203 -58.2423 663.66 -81.4038 643.908 -98.4105C613.936 -124.235 565.707 -130.372 521.477 -135.753C481.731 -140.594 441.863 -146.065 401.632 -145.759C361.401 -145.471 320.241 -139.011 286.695 -121.788C253.128 -104.583 228.307 -75.3929 228.206 -44.169Z" fill="url(#paint1_linear_159_2)"/>
<g opacity="0.4248">
<g opacity="0.4248">
<path opacity="0.4248" d="M44.6941 -18.5168C21.2462 2.59308 19.7517 33.601 20.2566 61.5495C20.6807 85.3409 18.237 111.544 1.67594 131.25C-10.2803 145.485 -28.2955 153.764 -45.7249 161.592C-57.8023 167.009 -69.6576 172.696 -82.2197 177.177C-97.8113 182.738 -113.908 187.543 -128.308 195.371C-142.708 203.182 -154.058 214.106 -161.652 227.531C-169.185 240.867 -173.184 255.606 -176.072 270.237C-176.799 273.89 -177.405 277.579 -177.991 281.251C-178.132 282.169 -176.597 282.582 -176.395 281.647C-173.386 266.943 -170.458 252.096 -164.459 238.077C-158.34 223.824 -148.807 210.938 -134.973 201.724C-121.401 192.69 -105.405 187.309 -89.7529 181.892C-81.9976 179.211 -74.2422 176.511 -66.7089 173.308C-61.1347 170.932 -55.7019 168.269 -50.1883 165.767C-32.6983 157.885 -14.2388 150.254 -0.889001 137.063C16.0153 120.344 21.1048 97.5065 22.155 75.6588C22.8619 60.8837 21.5693 46.1266 23.2052 31.3874C24.7805 17.1882 28.7794 2.82704 37.8476 -9.12263C40.1702 -12.182 42.8159 -15.0075 45.704 -17.617C46.3704 -18.2109 45.3606 -19.1107 44.6941 -18.5168Z" fill="url(#paint2_linear_159_2)"/>
</g>
</g>
<g opacity="0.4248">
<g opacity="0.4248">
<path opacity="0.4248" d="M-141.698 381.599C-142.284 351.959 -134.629 322.427 -119.644 295.954C-104.294 268.851 -81.6947 245.942 -53.7833 228.593C-24.236 210.236 9.39089 196.451 34.0708 172.48C44.7547 162.096 53.6613 149.966 58.2055 136.379C63.7393 119.786 61.1945 102.635 57.6198 85.9528C53.8633 68.4782 48.996 50.3737 52.9544 32.5932C55.9435 19.1318 65.153 5.92241 79.6136 0.181527C83.1278 -1.2042 86.9449 -2.12203 90.762 -2.49996C91.7112 -2.58994 91.7718 -3.90368 90.762 -3.86768C75.8167 -3.34578 63.4767 6.4263 56.6907 17.7461C47.9659 32.3232 48.6324 49.5099 51.3387 65.3828C54.449 83.5052 60.5886 101.448 59.4374 119.948C58.468 135.389 51.4599 149.768 41.2001 162.096C19.0246 188.767 -14.9053 203.758 -45.422 221.448C-60.2663 230.051 -74.323 239.607 -86.6024 251.017C-98.0133 261.616 -107.95 273.494 -116.17 286.236C-132.731 311.881 -142.486 341.125 -143.556 370.729C-143.697 374.364 -143.657 378 -143.495 381.617C-143.455 382.625 -141.678 382.625 -141.698 381.599Z" fill="url(#paint3_linear_159_2)"/>
</g>
</g>
<path d="M1075.72 1061.05C1064.71 1005.16 1075.72 944.364 1104.58 898.258C1136.75 846.868 1188.45 825.24 1233.91 794.908C1255.49 780.481 1276.49 763.541 1292.66 741.032C1300.7 729.816 1307.3 717.357 1312.19 703.836C1317.35 689.512 1320.66 674.411 1323.33 659.233C1328.73 628.435 1331.86 596.938 1342.17 567.668C1351.66 540.704 1365.98 516.123 1383.79 495.868C1421.9 452.482 1475.56 431.449 1528.12 438.339C1534.8 439.22 1541.49 440.567 1548.09 442.147C1549.34 442.457 1549.89 440.23 1548.62 439.867C1497.22 424.43 1439.55 440.074 1397.71 477.995C1378.42 495.505 1362.12 517.548 1350.04 542.492C1343.92 555.08 1338.9 568.42 1335.09 582.225C1330.9 597.456 1328.24 613.179 1325.79 628.901C1320.81 660.735 1316.47 693.683 1301.82 721.683C1288.2 747.714 1267.64 767.452 1245.9 783.511C1201.22 816.537 1147.89 835.808 1112.06 883.649C1080.15 926.258 1064.87 985.445 1071.21 1041.83C1071.95 1048.46 1073.05 1055.02 1074.41 1061.49C1074.58 1062.5 1075.92 1062.06 1075.72 1061.05Z" fill="url(#paint4_linear_159_2)"/>
<path d="M1164.2 994.588C1157.32 975.964 1158.85 954.854 1165.49 936.463C1172.38 917.348 1184.48 902.039 1198.63 889.969C1228.21 864.74 1264.35 853.499 1294.56 829.539C1309.23 817.909 1321.6 803.249 1330.96 785.531C1340.13 768.177 1346.49 748.932 1351.4 729.35C1362.3 685.886 1365.85 639.884 1380.96 597.896C1393.59 562.799 1416.68 529.074 1449.04 518.817C1452.79 517.625 1456.61 516.667 1460.47 516.045C1461.3 515.916 1461.1 514.258 1460.27 514.31C1427.58 516.978 1400.96 547.62 1385.94 579.972C1367.12 620.509 1362.67 667.392 1353.31 711.581C1348.94 732.147 1343.51 752.532 1335.3 771.467C1327.02 790.608 1315.83 807.548 1301.4 820.758C1271.82 847.852 1234.59 859.094 1203.47 883.157C1188.98 894.372 1175.78 908.437 1167.36 926.543C1159.55 943.302 1155.47 963.376 1159.05 982.31C1159.9 986.869 1161.24 991.246 1162.97 995.469C1163.35 996.505 1164.57 995.598 1164.2 994.588Z" fill="url(#paint5_linear_159_2)"/>
<path d="M1437.05 619.68C1418.04 626.078 1402.69 643.044 1391.59 661.797C1379.58 682.156 1371.92 705.494 1366.35 729.298C1359.84 757.065 1355.61 785.583 1347.85 812.936C1344.12 826.068 1339.62 839.02 1333.55 850.883C1328.16 861.399 1321.58 871.061 1313.99 879.479C1299.26 895.797 1280.05 907.401 1259.46 906.572C1256.91 906.469 1254.37 906.184 1251.85 905.744C1250.66 905.536 1250.12 907.609 1251.34 907.919C1271.39 912.97 1291.76 904.215 1307.65 889.943C1315.99 882.458 1323.31 873.521 1329.56 863.601C1336.18 853.084 1341.29 841.532 1345.5 829.436C1354.89 802.497 1359.6 773.746 1365.43 745.565C1370.61 720.465 1376.95 695.703 1388.09 673.297C1398.26 652.835 1412.14 635.144 1430.43 624.783C1432.71 623.488 1435.03 622.322 1437.38 621.26C1438.23 620.871 1437.93 619.369 1437.05 619.68Z" fill="url(#paint6_linear_159_2)"/>
<path d="M412.188 177.895C398.556 211.421 354.947 245.256 313.739 251.707C272.547 258.168 225.917 245.665 193.159 219.401C169.539 200.45 153.689 175.756 133.861 153.897C114.033 132.037 87.0792 111.642 56.2189 109.295C40.3095 108.073 23.7233 111.653 8.93222 105.392C-4.3636 99.7778 -12.7433 87.172 -14.8585 74.9049C-16.9575 62.6482 -13.7383 50.6195 -9.52541 39.276C2.27986 7.40673 22.0558 -21.6876 48.1594 -45.6417C66.483 -62.4537 88.9724 -77.1499 116.27 -80.9964C157.703 -86.849 200.436 -67.0618 239.459 -48.7115C274.53 -32.226 310.124 -16.1974 342.103 4.78171C374.096 25.746 402.659 52.2786 417.857 83.7621C433.083 115.241 433.211 152.097 412.188 177.895Z" fill="url(#paint7_linear_159_2)"/>
<path d="M1278 949.487C1277.88 985.98 1325.13 1050.14 1354.51 1076.32C1383.88 1102.51 1420.4 1120.09 1464.82 1115.98C1496.85 1113.02 1536.38 1097.84 1567.26 1090.63C1598.14 1083.41 1633.87 1081 1660.69 1094.91C1674.52 1102.07 1685.69 1113.39 1701.99 1115.98C1716.63 1118.32 1731.94 1112.6 1741.9 1103.95C1751.83 1095.29 1757.27 1084.1 1761.43 1072.94C1773.14 1041.61 1776.47 1008.4 1771.18 976.044C1767.47 953.333 1732.98 976.963 1713.23 959.957C1683.26 934.132 1660.97 881.203 1616.74 875.822C1576.99 870.981 1541.4 901.49 1501.17 901.796C1460.94 902.084 1393.42 867.722 1354.51 881.672C1328.02 891.17 1278.1 918.263 1278 949.487Z" fill="url(#paint8_linear_159_2)"/>
<path d="M1054.75 287.387C1070.77 314.25 1135.4 339.565 1169.54 345.231C1203.67 350.906 1239.5 346.953 1271.83 323.429C1295.14 306.455 1318.82 277.053 1339.37 257.491C1359.92 237.928 1386.32 219.657 1413.07 217.491C1426.86 216.364 1440.45 219.522 1454.12 213.899C1466.4 208.856 1475.64 197.581 1479.47 186.624C1483.29 175.676 1482.53 164.943 1480.8 154.825C1475.97 126.397 1463.87 100.466 1445.52 79.138C1432.64 64.1693 1416.57 97.4539 1393.88 94.0819C1359.45 88.9509 1318.95 60.3606 1282.58 76.8336C1249.9 91.6326 1236.01 130.483 1205.22 149.287C1174.43 168.078 1107.36 174.017 1083.62 202.233C1067.45 221.444 1041.04 264.402 1054.75 287.387Z" fill="url(#paint9_linear_159_2)" fill-opacity="0.8"/>
</g>
<defs>
<filter id="filter0_d_159_2" x="0" y="0" width="1448" height="1032" filterUnits="userSpaceOnUse" color-interpolation-filters="sRGB">
<feFlood flood-opacity="0" result="BackgroundImageFix"/>
<feColorMatrix in="SourceAlpha" type="matrix" values="0 0 0 0 0 0 0 0 0 0 0 0 0 0 0 0 0 0 127 0" result="hardAlpha"/>
<feOffset dy="4"/>
<feGaussianBlur stdDeviation="2"/>
<feComposite in2="hardAlpha" operator="out"/>
<feColorMatrix type="matrix" values="0 0 0 0 0 0 0 0 0 0 0 0 0 0 0 0 0 0 0.25 0"/>
<feBlend mode="normal" in2="BackgroundImageFix" result="effect1_dropShadow_159_2"/>
<feBlend mode="normal" in="SourceGraphic" in2="effect1_dropShadow_159_2" result="shape"/>
</filter>
<linearGradient id="paint0_linear_159_2" x1="452.78" y1="807.874" x2="188.392" y2="1024.05" gradientUnits="userSpaceOnUse">
<stop offset="0.1031" stop-color="#541A3D"/>
<stop offset="0.3506" stop-color="#32272D"/>
<stop offset="0.714" stop-color="#241E22"/>
<stop offset="0.9948" stop-color="#1F1B1E"/>
</linearGradient>
<linearGradient id="paint1_linear_159_2" x1="224.142" y1="-20.4295" x2="678.375" y2="-20.4295" gradientUnits="userSpaceOnUse">
<stop stop-color="#050103"/>
<stop offset="0.714" stop-color="#241E22"/>
<stop offset="0.9948" stop-color="#610836"/>
</linearGradient>
<linearGradient id="paint2_linear_159_2" x1="-178.007" y1="131.729" x2="45.9263" y2="131.729" gradientUnits="userSpaceOnUse">
<stop stop-color="#5C5A44"/>
<stop offset="0.6103" stop-color="#3F4541"/>
<stop offset="1" stop-color="#313C40"/>
</linearGradient>
<linearGradient id="paint3_linear_159_2" x1="27.7956" y1="190.474" x2="83.7957" y2="114.974" gradientUnits="userSpaceOnUse">
<stop stop-color="#F42CC2"/>
<stop offset="0.6103" stop-color="#FFE8FC"/>
<stop offset="1" stop-color="#CD3EAE"/>
</linearGradient>
<linearGradient id="paint4_linear_159_2" x1="1069.76" y1="748.001" x2="1548.8" y2="748.001" gradientUnits="userSpaceOnUse">
<stop stop-color="#704158"/>
<stop offset="0.6103" stop-color="#502B3D"/>
<stop offset="1" stop-color="#3F172F"/>
</linearGradient>
<linearGradient id="paint5_linear_159_2" x1="1157.7" y1="755.12" x2="1460.45" y2="755.12" gradientUnits="userSpaceOnUse">
<stop stop-color="#5C4453"/>
<stop offset="0.6103" stop-color="#453F43"/>
<stop offset="1" stop-color="#40313A"/>
</linearGradient>
<linearGradient id="paint6_linear_159_2" x1="1251.42" y1="764.497" x2="1437.57" y2="764.497" gradientUnits="userSpaceOnUse">
<stop stop-color="#5C4451"/>
<stop offset="0.6103" stop-color="#593E4F"/>
<stop offset="1" stop-color="#542C48"/>
</linearGradient>
<linearGradient id="paint7_linear_159_2" x1="399.394" y1="199.562" x2="67.3031" y2="-72.659" gradientUnits="userSpaceOnUse">
<stop offset="0.1031" stop-color="#450B29"/>
<stop offset="0.3506" stop-color="#21181E"/>
<stop offset="0.9948" stop-color="#040304"/>
</linearGradient>
<linearGradient id="paint8_linear_159_2" x1="965.158" y1="126.293" x2="1419.39" y2="126.293" gradientUnits="userSpaceOnUse">
<stop offset="0.71" stop-color="#4B0D2B"/>
<stop offset="1"/>
</linearGradient>
<linearGradient id="paint9_linear_159_2" x1="418.718" y1="-190.656" x2="767.837" y2="-400.428" gradientUnits="userSpaceOnUse">
<stop offset="0.1031" stop-color="#472F38"/>
<stop offset="0.3506" stop-color="#5B2E45"/>
<stop offset="0.714" stop-color="#590B3A"/>
<stop offset="0.9948" stop-color="#1F1B1D"/>
</linearGradient>
<clipPath id="clip0_159_2">
<rect width="1440" height="1024" fill="white" transform="translate(4)"/>
</clipPath>
</defs>
</svg>
