<svg width="1440" height="1024" viewBox="0 0 1440 1024" fill="none" xmlns="http://www.w3.org/2000/svg">
<g clip-path="url(#clip0_159_33)">
<rect width="1440" height="1024" fill="url(#paint0_linear_159_33)"/>
<path d="M636.024 1173.69C669.812 1149.71 688.453 1113.66 685.343 1078.39C680.94 1028.63 637.619 993.298 581.514 972.332C560.974 964.648 539.404 958.403 520.177 948.901C473.766 925.955 475.927 890.052 454.721 855.049C397.626 760.747 238.317 829.512 140.183 807.412C76.3222 793.033 31.6074 746.314 29.3656 695.618C29.2041 691.983 29.1839 688.15 26.8209 684.982C25.185 682.805 22.5797 681.167 19.934 679.709C-21.3676 656.854 -83.4512 665.312 -120.289 689.841C-161.025 716.98 -179.667 758.696 -190.694 799.26C-199.499 831.636 -204.549 865.307 -195.804 897.701C-172.093 985.631 -56.5294 1040.81 -8.34093 1122.62C2.06019 1140.29 9.2501 1159.1 21.5901 1176.02C52.9752 1219.03 113.625 1244.4 174.133 1260.78C248.738 1280.97 332.513 1290.62 406.108 1268.36C453.247 1254.1 492.993 1227.72 540.455 1214.11C573.516 1204.59 610.112 1192.09 636.024 1173.69Z" fill="url(#paint1_linear_159_33)" fill-opacity="0.58"/>
<path d="M224.206 -44.1693C212.876 -10.5878 225.862 38.5606 255.248 64.7455C284.613 90.9304 331.146 104.842 375.557 100.738C407.589 97.769 437.116 86.2693 467.996 79.0527C498.876 71.8361 534.604 69.4246 561.424 83.3358C575.259 90.4984 586.427 101.818 602.726 104.41C617.368 106.749 632.677 101.026 642.634 92.3701C652.571 83.7137 658.003 72.52 662.164 61.3621C673.878 30.0303 677.21 -3.17328 671.919 -35.531C668.202 -58.2425 659.659 -81.404 639.907 -98.4107C609.936 -124.236 561.707 -130.372 517.477 -135.753C477.731 -140.594 437.863 -146.065 397.632 -145.759C357.401 -145.472 316.241 -139.011 282.695 -121.788C249.128 -104.583 224.307 -75.3932 224.206 -44.1693Z" fill="url(#paint2_linear_159_33)" fill-opacity="0.05"/>
<g opacity="0.4248">
<g opacity="0.4248">
<path opacity="0.4248" d="M38.8983 -26.4909C15.4503 -5.38104 13.9558 25.6269 14.4607 53.5754C14.8848 77.3668 12.4411 103.57 -4.11995 123.276C-16.0762 137.511 -34.0914 145.789 -51.5208 153.618C-63.5982 159.035 -75.4535 164.722 -88.0156 169.203C-103.607 174.764 -119.704 179.569 -134.104 187.397C-148.504 195.208 -159.854 206.132 -167.448 219.557C-174.981 232.892 -178.98 247.632 -181.868 262.263C-182.595 265.916 -183.201 269.605 -183.787 273.277C-183.928 274.194 -182.393 274.608 -182.191 273.672C-179.182 258.969 -176.253 244.122 -170.255 230.103C-164.136 215.85 -154.603 202.964 -140.768 193.75C-127.197 184.716 -111.201 179.335 -95.5488 173.918C-87.7934 171.236 -80.0381 168.537 -72.5048 165.334C-66.9306 162.958 -61.4978 160.295 -55.9842 157.793C-38.4942 149.911 -20.0347 142.28 -6.6849 129.089C10.2194 112.37 15.3089 89.5324 16.3591 67.6847C17.066 52.9095 15.7734 38.1524 17.4093 23.4133C18.9846 9.2141 22.9835 -5.14709 32.0517 -17.0968C34.3743 -20.1562 37.02 -22.9816 39.9081 -25.5911C40.5745 -26.185 39.5647 -27.0848 38.8983 -26.4909Z" fill="url(#paint3_linear_159_33)"/>
</g>
</g>
<g opacity="0.4248">
<g opacity="0.4248">
<path opacity="0.4248" d="M-147.494 373.625C-148.08 343.985 -140.425 314.452 -125.44 287.98C-110.09 260.877 -87.4906 237.967 -59.5793 220.619C-30.032 202.262 3.59493 188.477 28.2749 164.506C38.9587 154.122 47.8653 141.992 52.4095 128.405C57.9433 111.812 55.3986 94.6614 51.8238 77.9786C48.0673 60.504 43.2 42.3996 47.1585 24.6191C50.1475 11.1577 59.3571 -2.05172 73.8177 -7.79259C77.3318 -9.17832 81.1489 -10.0962 84.9661 -10.4741C85.9153 -10.5641 85.9759 -11.8778 84.9661 -11.8418C70.0207 -11.3199 57.6808 -1.54782 50.8948 9.77197C42.17 24.3491 42.8365 41.5358 45.5428 57.4087C48.653 75.5311 54.7927 93.4736 53.6415 111.974C52.6721 127.415 45.6639 141.794 35.4042 154.122C13.2286 180.793 -20.7013 195.784 -51.218 213.474C-66.0623 222.077 -80.1189 231.633 -92.3983 243.042C-103.809 253.642 -113.746 265.52 -121.966 278.262C-138.527 303.907 -148.282 333.151 -149.352 362.755C-149.493 366.39 -149.453 370.026 -149.291 373.643C-149.251 374.651 -147.474 374.651 -147.494 373.625Z" fill="url(#paint4_linear_159_33)"/>
</g>
</g>
<path d="M1069.93 1053.08C1058.92 997.182 1069.93 936.39 1098.78 890.284C1130.95 838.894 1182.66 817.266 1228.11 786.934C1249.69 772.507 1270.7 755.567 1286.86 733.058C1294.91 721.842 1301.51 709.383 1306.4 695.862C1311.55 681.538 1314.86 666.437 1317.54 651.259C1322.93 620.461 1326.07 588.964 1336.37 559.694C1345.87 532.73 1360.19 508.149 1377.99 487.894C1416.1 444.507 1469.76 423.475 1522.32 430.365C1529.01 431.245 1535.7 432.592 1542.3 434.172C1543.55 434.483 1544.1 432.256 1542.82 431.893C1491.42 416.455 1433.75 432.1 1391.92 470.021C1372.62 487.531 1356.33 509.574 1344.24 534.517C1338.13 547.106 1333.11 560.445 1329.29 574.251C1325.1 589.482 1322.45 605.204 1319.99 620.927C1315.01 652.761 1310.67 685.708 1296.03 713.709C1282.41 739.74 1261.84 759.478 1240.11 775.537C1195.42 808.562 1142.09 827.834 1106.26 875.675C1074.36 918.284 1059.07 977.47 1065.41 1033.86C1066.15 1040.49 1067.25 1047.04 1068.61 1053.52C1068.79 1054.53 1070.12 1054.09 1069.93 1053.08Z" fill="url(#paint5_linear_159_33)"/>
<path d="M1158.41 986.614C1151.52 967.99 1153.05 946.88 1159.7 928.489C1166.58 909.373 1178.69 894.065 1192.83 881.995C1222.41 856.766 1258.55 845.525 1288.77 821.565C1303.44 809.935 1315.8 795.274 1325.17 777.557C1334.33 760.203 1340.69 740.958 1345.6 721.376C1356.5 677.912 1360.05 631.909 1375.16 589.922C1387.79 554.825 1410.88 521.1 1443.25 510.843C1447 509.651 1450.81 508.693 1454.67 508.071C1455.51 507.942 1455.31 506.284 1454.48 506.336C1421.78 509.004 1395.16 539.646 1380.14 571.998C1361.33 612.535 1356.87 659.417 1347.51 703.607C1343.15 724.173 1337.71 744.558 1329.51 763.492C1321.22 782.634 1310.04 799.574 1295.61 812.784C1266.03 839.878 1228.79 851.12 1197.68 875.183C1183.18 886.398 1169.98 900.463 1161.56 918.569C1153.76 935.327 1149.68 955.402 1153.25 974.336C1154.11 978.895 1155.44 983.272 1157.18 987.494C1157.55 988.531 1158.78 987.624 1158.41 986.614Z" fill="url(#paint6_linear_159_33)"/>
<path d="M1431.25 611.706C1412.24 618.104 1396.89 635.07 1385.8 653.823C1373.78 674.182 1366.13 697.52 1360.56 721.324C1354.05 749.091 1349.81 777.609 1342.05 804.962C1338.32 818.095 1333.83 831.046 1327.75 842.909C1322.36 853.425 1315.78 863.087 1308.2 871.505C1293.46 887.823 1274.25 899.427 1253.66 898.599C1251.12 898.495 1248.57 898.21 1246.05 897.77C1244.87 897.562 1244.32 899.635 1245.55 899.946C1265.59 904.996 1285.96 896.242 1301.86 881.969C1310.19 874.484 1317.51 865.547 1323.76 855.627C1330.39 845.111 1335.5 833.558 1339.71 821.462C1349.09 794.524 1353.81 765.772 1359.64 737.591C1364.81 712.492 1371.15 687.729 1382.29 665.324C1392.46 644.861 1406.34 627.17 1424.63 616.809C1426.91 615.514 1429.24 614.348 1431.58 613.286C1432.44 612.898 1432.13 611.395 1431.25 611.706Z" fill="url(#paint7_linear_159_33)"/>
<path d="M406.393 169.921C392.76 203.447 349.151 237.281 307.943 243.732C266.751 250.194 220.121 237.691 187.363 211.427C163.743 192.476 147.893 167.782 128.065 145.922C108.237 124.063 81.2834 103.668 50.4231 101.32C34.5137 100.099 17.9275 103.678 3.13644 97.4183C-10.1594 91.8037 -18.5391 79.1979 -20.6543 66.9308C-22.7533 54.674 -19.5341 42.6453 -15.3212 31.3019C-3.51591 -0.567396 16.26 -29.6618 42.3637 -53.6158C60.6873 -70.4278 83.1767 -85.124 110.474 -88.9705C151.907 -94.8231 194.64 -75.0359 233.663 -56.6856C268.734 -40.2001 304.328 -24.1715 336.308 -3.19241C368.3 17.7719 396.863 44.3045 412.061 75.788C427.287 107.267 427.416 144.123 406.393 169.921Z" fill="url(#paint8_linear_159_33)" fill-opacity="0.29"/>
<path d="M1274 949.487C1273.88 985.98 1321.13 1050.14 1350.51 1076.32C1379.88 1102.51 1416.4 1120.09 1460.82 1115.98C1492.85 1113.02 1532.38 1097.84 1563.26 1090.63C1594.14 1083.41 1629.87 1081 1656.69 1094.91C1670.52 1102.07 1681.69 1113.39 1697.99 1115.98C1712.63 1118.32 1727.94 1112.6 1737.9 1103.95C1747.83 1095.29 1753.27 1084.1 1757.43 1072.94C1769.14 1041.61 1772.47 1008.4 1767.18 976.044C1763.47 953.333 1728.98 976.963 1709.23 959.957C1679.26 934.132 1656.97 881.203 1612.74 875.822C1572.99 870.981 1537.4 901.49 1497.17 901.796C1456.94 902.084 1389.42 867.722 1350.51 881.672C1324.02 891.17 1274.1 918.263 1274 949.487Z" fill="url(#paint9_linear_159_33)" fill-opacity="0.4"/>
<path d="M1050.75 287.387C1066.77 314.25 1131.4 339.565 1165.54 345.231C1199.67 350.906 1235.5 346.953 1267.83 323.429C1291.14 306.455 1314.82 277.053 1335.37 257.491C1355.92 237.928 1382.32 219.657 1409.07 217.491C1422.86 216.364 1436.45 219.522 1450.12 213.899C1462.4 208.856 1471.64 197.581 1475.47 186.624C1479.29 175.676 1478.53 164.943 1476.8 154.825C1471.97 126.397 1459.87 100.466 1441.52 79.138C1428.64 64.1693 1412.57 97.4539 1389.88 94.0819C1355.45 88.9509 1314.95 60.3606 1278.58 76.8336C1245.9 91.6326 1232.01 130.483 1201.22 149.287C1170.43 168.078 1103.36 174.017 1079.62 202.233C1063.45 221.444 1037.04 264.402 1050.75 287.387Z" fill="url(#paint10_linear_159_33)" fill-opacity="0.45"/>
</g>
<defs>
<linearGradient id="paint0_linear_159_33" x1="1061.5" y1="135" x2="772" y2="1007" gradientUnits="userSpaceOnUse">
<stop stop-color="#CFA7B9"/>
<stop offset="1" stop-color="#796F75"/>
</linearGradient>
<linearGradient id="paint1_linear_159_33" x1="448.78" y1="807.874" x2="184.391" y2="1024.05" gradientUnits="userSpaceOnUse">
<stop offset="0.0536202" stop-color="#541A3D"/>
<stop offset="0.3506" stop-color="#32272D"/>
<stop offset="0.714" stop-color="#241E22"/>
<stop offset="0.9948" stop-color="#1F1B1E"/>
</linearGradient>
<linearGradient id="paint2_linear_159_33" x1="220.142" y1="-20.4298" x2="674.375" y2="-20.4298" gradientUnits="userSpaceOnUse">
<stop stop-color="#050103"/>
<stop offset="0.714" stop-color="#241E22"/>
<stop offset="0.9948" stop-color="#610836"/>
</linearGradient>
<linearGradient id="paint3_linear_159_33" x1="-183.802" y1="123.755" x2="40.1304" y2="123.755" gradientUnits="userSpaceOnUse">
<stop stop-color="#5C5A44"/>
<stop offset="0.6103" stop-color="#3F4541"/>
<stop offset="1" stop-color="#313C40"/>
</linearGradient>
<linearGradient id="paint4_linear_159_33" x1="-149.417" y1="181.263" x2="85.0755" y2="181.263" gradientUnits="userSpaceOnUse">
<stop stop-color="#5C5A44"/>
<stop offset="0.6103" stop-color="#3F4541"/>
<stop offset="1" stop-color="#313C40"/>
</linearGradient>
<linearGradient id="paint5_linear_159_33" x1="1063.96" y1="740.027" x2="1543.01" y2="740.027" gradientUnits="userSpaceOnUse">
<stop stop-color="#704158"/>
<stop offset="0.6103" stop-color="#502B3D"/>
<stop offset="1" stop-color="#3F172F"/>
</linearGradient>
<linearGradient id="paint6_linear_159_33" x1="1151.9" y1="747.146" x2="1454.65" y2="747.146" gradientUnits="userSpaceOnUse">
<stop stop-color="#5C4453"/>
<stop offset="0.6103" stop-color="#453F43"/>
<stop offset="1" stop-color="#40313A"/>
</linearGradient>
<linearGradient id="paint7_linear_159_33" x1="1245.63" y1="756.523" x2="1431.78" y2="756.523" gradientUnits="userSpaceOnUse">
<stop stop-color="#5C4451"/>
<stop offset="0.6103" stop-color="#593E4F"/>
<stop offset="1" stop-color="#542C48"/>
</linearGradient>
<linearGradient id="paint8_linear_159_33" x1="393.598" y1="191.588" x2="61.5073" y2="-80.6332" gradientUnits="userSpaceOnUse">
<stop offset="0.1031" stop-color="#450B29"/>
<stop offset="0.3506" stop-color="#21181E"/>
<stop offset="0.9948" stop-color="#040304"/>
</linearGradient>
<linearGradient id="paint9_linear_159_33" x1="961.158" y1="126.293" x2="1415.39" y2="126.293" gradientUnits="userSpaceOnUse">
<stop offset="0.71" stop-color="#4B0D2B"/>
<stop offset="1"/>
</linearGradient>
<linearGradient id="paint10_linear_159_33" x1="414.718" y1="-190.656" x2="763.837" y2="-400.428" gradientUnits="userSpaceOnUse">
<stop offset="0.1031" stop-color="#472F38"/>
<stop offset="0.3506" stop-color="#5B2E45"/>
<stop offset="0.714" stop-color="#590B3A"/>
<stop offset="0.9948" stop-color="#1F1B1D"/>
</linearGradient>
<clipPath id="clip0_159_33">
<rect width="1440" height="1024" fill="white"/>
</clipPath>
</defs>
</svg>
