<svg width="1440" height="1024" viewBox="0 0 1440 1024" fill="none" xmlns="http://www.w3.org/2000/svg">
<g clip-path="url(#clip0_164_95)">
<rect width="1440" height="1024" fill="url(#paint0_linear_164_95)"/>
<path d="M636.024 1173.7C669.812 1149.71 688.454 1113.66 685.343 1078.39C680.941 1028.63 637.619 993.298 581.514 972.332C560.974 964.648 539.404 958.403 520.178 948.901C473.766 925.955 475.927 890.053 454.721 855.049C397.626 760.748 238.317 829.512 140.183 807.413C76.3223 793.034 31.6076 746.315 29.3658 695.619C29.2042 691.983 29.184 688.15 26.821 684.983C25.1851 682.805 -16.8543 662.958 -19.5 661.5C-60.8015 638.644 -83.4511 665.312 -120.289 689.842C-161.025 716.98 -179.666 758.696 -190.694 799.26C-199.499 831.636 -204.548 865.307 -195.803 897.701C-172.093 985.632 -56.5293 1040.81 -8.34081 1122.62C2.06032 1140.29 9.25022 1159.1 21.5902 1176.02C52.9753 1219.03 113.625 1244.4 174.133 1260.78C248.739 1280.97 332.513 1290.62 406.109 1268.36C453.247 1254.1 492.993 1227.72 540.455 1214.12C573.516 1204.6 610.112 1192.09 636.024 1173.7Z" fill="url(#paint1_linear_164_95)" fill-opacity="0.26"/>
<path d="M224.206 -44.169C212.876 -10.5876 225.862 38.5608 255.248 64.7457C284.613 90.9306 331.146 104.842 375.557 100.739C407.589 97.7693 437.116 86.2695 467.996 79.0529C498.876 71.8363 534.604 69.4248 561.425 83.3361C575.259 90.4987 586.428 101.818 602.726 104.41C617.368 106.75 632.677 101.027 642.634 92.3703C652.571 83.714 658.004 72.5202 662.164 61.3624C673.878 30.0305 677.21 -3.17304 671.919 -35.5307C668.203 -58.2423 659.66 -81.4038 639.908 -98.4105C609.936 -124.235 561.707 -130.372 517.477 -135.753C477.731 -140.594 437.863 -146.065 397.632 -145.759C357.401 -145.471 316.241 -139.011 282.695 -121.788C249.128 -104.583 224.307 -75.3929 224.206 -44.169Z" fill="url(#paint2_linear_164_95)" fill-opacity="0.05"/>
<g opacity="0.4248">
<g opacity="0.4248">
<path opacity="0.4248" d="M38.8985 -26.4909C15.4505 -5.38104 13.956 25.6269 14.4609 53.5754C14.8851 77.3668 12.4413 103.57 -4.11971 123.276C-16.076 137.511 -34.0911 145.789 -51.5206 153.618C-63.598 159.035 -75.4532 164.722 -88.0154 169.203C-103.607 174.764 -119.703 179.569 -134.103 187.397C-148.503 195.208 -159.854 206.132 -167.448 219.557C-174.981 232.892 -178.98 247.632 -181.868 262.263C-182.595 265.916 -183.201 269.605 -183.786 273.277C-183.928 274.194 -182.393 274.608 -182.191 273.672C-179.182 258.969 -176.253 244.122 -170.255 230.103C-164.135 215.85 -154.603 202.964 -140.768 193.75C-127.196 184.716 -111.201 179.335 -95.5486 173.918C-87.7932 171.236 -80.0378 168.537 -72.5046 165.334C-66.9304 162.958 -61.4976 160.295 -55.984 157.793C-38.4939 149.911 -20.0344 142.28 -6.68466 129.089C10.2197 112.37 15.3092 89.5324 16.3594 67.6847C17.0663 52.9095 15.7737 38.1524 17.4096 23.4133C18.9849 9.2141 22.9838 -5.14709 32.0519 -17.0968C34.3745 -20.1562 37.0202 -22.9816 39.9083 -25.5911C40.5748 -26.185 39.565 -27.0848 38.8985 -26.4909Z" fill="url(#paint3_linear_164_95)"/>
</g>
</g>
<g opacity="0.4248">
<g opacity="0.4248">
<path opacity="0.4248" d="M-147.494 373.625C-148.079 343.984 -140.425 314.452 -125.439 287.979C-110.09 260.877 -87.4904 237.967 -59.579 220.619C-30.0318 202.262 3.59518 188.477 28.2751 164.506C38.959 154.122 47.8656 141.992 52.4098 128.405C57.9436 111.812 55.3988 94.6611 51.8241 77.9784C48.0676 60.5038 43.2002 42.3994 47.1587 24.6188C50.1478 11.1575 59.3573 -2.05196 73.8179 -7.79284C77.3321 -9.17857 81.1492 -10.0964 84.9663 -10.4743C85.9155 -10.5643 85.9761 -11.878 84.9663 -11.842C70.021 -11.3201 57.681 -1.54807 50.895 9.77172C42.1702 24.3489 42.8367 41.5355 45.543 57.4084C48.6532 75.5309 54.7929 93.4734 53.6417 111.974C52.6723 127.415 45.6642 141.794 35.4044 154.122C13.2288 180.792 -20.701 195.783 -51.2177 213.474C-66.062 222.076 -80.1187 231.632 -92.3981 243.042C-103.809 253.642 -113.746 265.52 -121.966 278.261C-138.527 303.906 -148.281 333.151 -149.352 362.755C-149.493 366.39 -149.453 370.025 -149.291 373.643C-149.251 374.65 -147.474 374.65 -147.494 373.625Z" fill="url(#paint4_linear_164_95)"/>
</g>
</g>
<path d="M1069.93 1053.08C1058.92 997.182 1069.93 936.39 1098.78 890.284C1130.95 838.894 1182.66 817.266 1228.11 786.934C1249.69 772.507 1270.7 755.567 1286.86 733.058C1294.91 721.842 1301.51 709.383 1306.4 695.862C1311.55 681.538 1314.86 666.437 1317.54 651.259C1322.93 620.461 1326.07 588.964 1336.37 559.694C1345.87 532.73 1360.19 508.149 1377.99 487.894C1416.1 444.507 1469.76 423.475 1522.32 430.365C1529.01 431.245 1535.7 432.592 1542.3 434.172C1543.55 434.483 1544.1 432.256 1542.82 431.893C1491.42 416.455 1433.75 432.1 1391.92 470.021C1372.62 487.531 1356.33 509.574 1344.24 534.517C1338.13 547.106 1333.11 560.445 1329.29 574.251C1325.1 589.482 1322.45 605.204 1319.99 620.927C1315.01 652.761 1310.67 685.708 1296.03 713.709C1282.41 739.74 1261.84 759.478 1240.11 775.537C1195.42 808.562 1142.09 827.834 1106.26 875.675C1074.36 918.284 1059.07 977.47 1065.41 1033.86C1066.16 1040.49 1067.25 1047.04 1068.61 1053.52C1068.79 1054.53 1070.12 1054.09 1069.93 1053.08Z" fill="url(#paint5_linear_164_95)"/>
<path d="M1158.41 986.614C1151.52 967.99 1153.05 946.88 1159.7 928.489C1166.58 909.373 1178.69 894.065 1192.83 881.995C1222.41 856.766 1258.55 845.525 1288.77 821.565C1303.44 809.935 1315.8 795.274 1325.17 777.557C1334.33 760.203 1340.69 740.958 1345.6 721.376C1356.5 677.912 1360.05 631.909 1375.16 589.922C1387.79 554.825 1410.88 521.1 1443.25 510.843C1447 509.651 1450.81 508.693 1454.67 508.071C1455.51 507.942 1455.31 506.284 1454.48 506.336C1421.78 509.004 1395.16 539.646 1380.14 571.998C1361.33 612.535 1356.87 659.417 1347.51 703.607C1343.15 724.173 1337.71 744.558 1329.51 763.492C1321.22 782.634 1310.04 799.574 1295.61 812.784C1266.03 839.878 1228.79 851.12 1197.68 875.183C1183.18 886.398 1169.98 900.463 1161.56 918.569C1153.76 935.327 1149.68 955.402 1153.25 974.336C1154.11 978.895 1155.45 983.272 1157.18 987.494C1157.55 988.531 1158.78 987.624 1158.41 986.614Z" fill="url(#paint6_linear_164_95)"/>
<path d="M1431.25 611.706C1412.24 618.104 1396.89 635.07 1385.8 653.823C1373.78 674.182 1366.13 697.52 1360.56 721.324C1354.05 749.091 1349.81 777.609 1342.05 804.962C1338.32 818.095 1333.83 831.046 1327.75 842.909C1322.36 853.425 1315.78 863.087 1308.2 871.505C1293.46 887.823 1274.25 899.427 1253.66 898.599C1251.12 898.495 1248.57 898.21 1246.05 897.77C1244.87 897.562 1244.32 899.635 1245.55 899.946C1265.59 904.996 1285.96 896.242 1301.86 881.969C1310.19 874.484 1317.51 865.547 1323.76 855.627C1330.39 845.111 1335.5 833.558 1339.71 821.462C1349.09 794.524 1353.81 765.772 1359.64 737.591C1364.81 712.492 1371.15 687.729 1382.29 665.324C1392.46 644.861 1406.34 627.17 1424.63 616.809C1426.91 615.514 1429.24 614.348 1431.58 613.286C1432.44 612.898 1432.13 611.395 1431.25 611.706Z" fill="url(#paint7_linear_164_95)"/>
<path d="M406.393 169.921C392.76 203.447 349.151 237.281 307.943 243.732C266.752 250.194 220.121 237.691 187.363 211.427C163.743 192.476 147.893 167.782 128.065 145.922C108.237 124.063 81.2835 103.668 50.4232 101.32C34.5138 100.099 17.9276 103.678 3.13656 97.4183C-10.1593 91.8037 -18.539 79.1979 -20.6542 66.9308C-22.7532 54.674 -19.534 42.6453 -15.3211 31.3019C-3.51579 -0.567396 16.2602 -29.6618 42.3638 -53.6158C60.6874 -70.4278 83.1768 -85.124 110.474 -88.9705C151.907 -94.8231 194.64 -75.0359 233.663 -56.6856C268.734 -40.2001 304.328 -24.1715 336.308 -3.19241C368.3 17.7719 396.863 44.3045 412.061 75.788C427.287 107.267 427.416 144.123 406.393 169.921Z" fill="url(#paint8_linear_164_95)" fill-opacity="0.25"/>
<path d="M1274 949.487C1273.88 985.98 1321.13 1050.14 1350.51 1076.32C1379.88 1102.51 1416.4 1120.09 1460.82 1115.98C1492.85 1113.02 1532.38 1097.84 1563.26 1090.63C1594.14 1083.41 1629.87 1081 1656.69 1094.91C1670.52 1102.07 1681.69 1113.39 1697.99 1115.98C1712.63 1118.32 1727.94 1112.6 1737.9 1103.95C1747.83 1095.29 1753.27 1084.1 1757.43 1072.94C1769.14 1041.61 1772.47 1008.4 1767.18 976.044C1763.47 953.333 1728.98 976.963 1709.23 959.957C1679.26 934.132 1656.97 881.203 1612.74 875.822C1572.99 870.981 1537.4 901.49 1497.17 901.796C1456.94 902.084 1389.42 867.722 1350.51 881.672C1324.02 891.17 1274.1 918.263 1274 949.487Z" fill="url(#paint9_linear_164_95)" fill-opacity="0.4"/>
<path d="M1050.75 287.387C1066.77 314.25 1131.4 339.565 1165.54 345.231C1199.67 350.906 1235.5 346.953 1267.83 323.429C1291.14 306.455 1314.82 277.053 1335.37 257.491C1355.92 237.928 1382.32 219.657 1409.07 217.491C1422.86 216.364 1436.45 219.522 1450.12 213.899C1462.4 208.856 1471.64 197.581 1475.47 186.624C1479.29 175.676 1478.53 164.943 1476.8 154.825C1471.97 126.397 1459.87 100.466 1441.52 79.138C1428.64 64.1693 1412.57 97.4539 1389.88 94.0819C1355.45 88.9509 1314.95 60.3606 1278.58 76.8336C1245.9 91.6326 1232.01 130.483 1201.22 149.287C1170.43 168.078 1103.36 174.017 1079.62 202.233C1063.45 221.444 1037.04 264.402 1050.75 287.387Z" fill="url(#paint10_linear_164_95)" fill-opacity="0.45"/>
<g style="mix-blend-mode:overlay" filter="url(#filter0_d_164_95)">
<path d="M1981.47 1799.97C2075.05 1665.31 2126.68 1462.96 2118.07 1264.96C2105.88 985.641 1985.89 787.337 1830.5 669.648C1773.61 626.512 1713.87 591.458 1660.62 538.119C1532.08 409.317 1538.06 207.781 1479.33 11.2956C1321.19 -518.053 879.965 -132.053 608.168 -256.106C431.296 -336.822 307.452 -599.072 301.243 -883.648C300.795 -904.054 300.74 -925.572 294.195 -943.351C289.664 -955.575 173.23 -1066.98 165.902 -1075.17C51.5114 -1203.46 -11.2198 -1053.77 -113.248 -916.075C-226.073 -763.736 -277.703 -529.57 -308.244 -301.869C-332.632 -120.133 -346.617 68.8775 -322.396 250.715C-256.726 744.303 63.3439 1054.03 196.809 1513.27C225.617 1612.47 245.53 1718.04 279.707 1813C366.633 2054.44 534.611 2196.88 702.198 2288.81C908.828 2402.15 1140.85 2456.3 1344.69 2331.34C1475.24 2251.33 1585.33 2103.23 1716.78 2026.86C1808.35 1973.42 1909.71 1903.21 1981.47 1799.97Z" fill="white" fill-opacity="0.45" shape-rendering="crispEdges"/>
<path d="M165.529 -1074.83L165.53 -1074.83C167.47 -1072.67 177.008 -1063.31 190.077 -1050.49C201.777 -1039.02 216.305 -1024.77 230.745 -1010.42C246.04 -995.219 261.243 -979.895 272.906 -967.609C278.737 -961.466 283.679 -956.086 287.303 -951.863C289.115 -949.752 290.593 -947.934 291.686 -946.458C292.79 -944.969 293.47 -943.869 293.726 -943.178C299.852 -926.537 300.265 -906.586 300.667 -887.258C300.692 -886.048 300.717 -884.841 300.743 -883.637C303.849 -741.283 336.377 -604.505 390.257 -493.212C444.133 -381.925 519.383 -296.074 607.96 -255.651C676.042 -224.578 754.698 -225.459 836.777 -235.933C871.864 -240.411 907.594 -246.644 943.401 -252.891C949.479 -253.951 955.56 -255.012 961.64 -256.065C1003.54 -263.32 1045.43 -270.189 1086.42 -273.893C1168.4 -281.302 1246.75 -276.041 1314.46 -235.93C1382.17 -195.824 1439.34 -120.823 1478.85 11.4387C1493.52 60.537 1504.16 109.955 1513.87 158.489C1516.05 169.417 1518.19 180.3 1520.32 191.124C1527.63 228.371 1534.82 264.924 1543.31 300.206C1565.23 391.279 1595.89 473.973 1660.26 538.472C1697.24 575.505 1737.36 603.749 1777.44 631.966C1795.13 644.414 1812.8 656.856 1830.2 670.046C1985.47 787.642 2105.38 985.805 2117.57 1264.98C2126.18 1462.9 2074.57 1665.13 1981.06 1799.68C1909.36 1902.84 1808.08 1973 1716.53 2026.43C1650.74 2064.65 1590.32 2120.81 1530.06 2177.37L1525.56 2181.6C1466.78 2236.78 1408.03 2291.94 1344.43 2330.91C1140.82 2455.73 909.012 2401.69 702.438 2288.37C534.922 2196.48 367.05 2054.12 280.178 1812.83C263.098 1765.38 249.58 1715.26 236.729 1664.6C233.714 1652.72 230.735 1640.8 227.756 1628.88C218.039 1590.01 208.315 1551.1 197.289 1513.13C139.817 1315.38 47.7492 1145.33 -43.6878 976.452C-58.4496 949.188 -73.1949 921.954 -87.7757 894.638C-192.68 698.112 -289.078 497.349 -321.9 250.649L-322.396 250.715L-321.9 250.649C-346.112 68.877 -332.135 -120.082 -307.748 -301.803C-277.207 -529.503 -225.587 -763.552 -112.847 -915.778C-96.0916 -938.389 -80.3904 -961.333 -65.3526 -983.307C-57.494 -994.79 -49.8166 -1006.01 -42.2647 -1016.78C-20.2489 -1048.17 0.704529 -1075.74 22.0262 -1095C43.3461 -1114.25 64.9693 -1125.14 88.3347 -1123.3C111.71 -1121.46 136.969 -1106.87 165.529 -1074.83Z" stroke="black" shape-rendering="crispEdges"/>
</g>
</g>
<defs>
<filter id="filter0_d_164_95" x="-339" y="-1124" width="2462" height="3535" filterUnits="userSpaceOnUse" color-interpolation-filters="sRGB">
<feFlood flood-opacity="0" result="BackgroundImageFix"/>
<feColorMatrix in="SourceAlpha" type="matrix" values="0 0 0 0 0 0 0 0 0 0 0 0 0 0 0 0 0 0 127 0" result="hardAlpha"/>
<feOffset dy="4"/>
<feGaussianBlur stdDeviation="2"/>
<feComposite in2="hardAlpha" operator="out"/>
<feColorMatrix type="matrix" values="0 0 0 0 0 0 0 0 0 0 0 0 0 0 0 0 0 0 0.25 0"/>
<feBlend mode="normal" in2="BackgroundImageFix" result="effect1_dropShadow_164_95"/>
<feBlend mode="normal" in="SourceGraphic" in2="effect1_dropShadow_164_95" result="shape"/>
</filter>
<linearGradient id="paint0_linear_164_95" x1="1061.5" y1="135" x2="772" y2="1007" gradientUnits="userSpaceOnUse">
<stop stop-color="#FFE7F4"/>
<stop offset="1" stop-color="#F9B3DD"/>
</linearGradient>
<linearGradient id="paint1_linear_164_95" x1="407.5" y1="823" x2="78.5551" y2="1046.19" gradientUnits="userSpaceOnUse">
<stop stop-color="white"/>
<stop offset="0.333333" stop-color="#F961B0"/>
<stop offset="0.666667" stop-color="#E32798" stop-opacity="0.5"/>
<stop offset="1" stop-color="#DD53AF" stop-opacity="0.5"/>
</linearGradient>
<linearGradient id="paint2_linear_164_95" x1="220.142" y1="-20.4295" x2="674.375" y2="-20.4295" gradientUnits="userSpaceOnUse">
<stop stop-color="#050103"/>
<stop offset="0.714" stop-color="#241E22"/>
<stop offset="0.9948" stop-color="#610836"/>
</linearGradient>
<linearGradient id="paint3_linear_164_95" x1="-183.802" y1="123.755" x2="40.1307" y2="123.755" gradientUnits="userSpaceOnUse">
<stop stop-color="#5C5A44"/>
<stop offset="0.6103" stop-color="#3F4541"/>
<stop offset="1" stop-color="#313C40"/>
</linearGradient>
<linearGradient id="paint4_linear_164_95" x1="-149.417" y1="181.263" x2="85.0758" y2="181.263" gradientUnits="userSpaceOnUse">
<stop stop-color="#5C5A44"/>
<stop offset="0.6103" stop-color="#3F4541"/>
<stop offset="1" stop-color="#313C40"/>
</linearGradient>
<linearGradient id="paint5_linear_164_95" x1="1063.96" y1="740.027" x2="1543.01" y2="740.027" gradientUnits="userSpaceOnUse">
<stop stop-color="white"/>
<stop offset="0.6103" stop-color="#FF56A8"/>
<stop offset="1" stop-color="#FF20A6"/>
</linearGradient>
<linearGradient id="paint6_linear_164_95" x1="1151.9" y1="747.146" x2="1454.65" y2="747.146" gradientUnits="userSpaceOnUse">
<stop stop-color="#FFD1EE"/>
<stop offset="0.225" stop-color="#FF39BD"/>
<stop offset="1" stop-color="#FFE8F6"/>
</linearGradient>
<linearGradient id="paint7_linear_164_95" x1="1245.63" y1="756.523" x2="1431.78" y2="756.523" gradientUnits="userSpaceOnUse">
<stop offset="0.44" stop-color="white"/>
<stop offset="0.6103" stop-color="#FF039A"/>
<stop offset="1" stop-color="#FFE4F7"/>
</linearGradient>
<linearGradient id="paint8_linear_164_95" x1="393.598" y1="191.588" x2="61.5075" y2="-80.6332" gradientUnits="userSpaceOnUse">
<stop offset="0.1031" stop-color="#F30C84"/>
<stop offset="0.3506" stop-color="#BC569A"/>
<stop offset="0.9948" stop-color="#884766"/>
</linearGradient>
<linearGradient id="paint9_linear_164_95" x1="961.158" y1="126.293" x2="1415.39" y2="126.293" gradientUnits="userSpaceOnUse">
<stop offset="0.71" stop-color="#FFBDDD"/>
<stop offset="1" stop-color="white"/>
</linearGradient>
<linearGradient id="paint10_linear_164_95" x1="414.718" y1="-190.656" x2="763.837" y2="-400.428" gradientUnits="userSpaceOnUse">
<stop stop-color="#FFF5F9"/>
<stop offset="0.333333" stop-color="#DBB3C7"/>
<stop offset="0.666667" stop-color="#D969AC"/>
<stop offset="1" stop-color="#FF6BAB" stop-opacity="0.5"/>
</linearGradient>
<clipPath id="clip0_164_95">
<rect width="1440" height="1024" fill="white"/>
</clipPath>
</defs>
</svg>
